HIERARCHY
ROOT Hips
{
  OFFSET 196.326 95.9168 97.7182
  CHANNELS 6 Xposition Yposition Zposition Zrotation Xrotation Yrotation
  JOINT LeftUpLeg
  {
    OFFSET 8.64259 1.95398 -2.38835
    CHANNELS 3 Zrotation Xrotation Yrotation
    JOINT LeftLeg
    {
      OFFSET 43.7702 0 0
      CHANNELS 3 Zrotation Xrotation Yrotation
      JOINT LeftFoot
      {
        OFFSET 40.6238 0 0
        CHANNELS 3 Zrotation Xrotation Yrotation
        JOINT LeftToeBase
        {
          OFFSET 12.7242 0 0
          CHANNELS 3 Zrotation Xrotation Yrotation
          End Site
          {
            OFFSET 0 0 0
          }
        }
      }
    }
  }
  JOINT RightUpLeg
  {
    OFFSET -8.2249 1.95398 -2.59336
    CHANNELS 3 Zrotation Xrotation Yrotation
    JOINT RightLeg
    {
      OFFSET 43.5653 0 0
      CHANNELS 3 Zrotation Xrotation Yrotation
      JOINT RightFoot
      {
        OFFSET 40.6238 0 0
        CHANNELS 3 Zrotation Xrotation Yrotation
        JOINT RightToeBase
        {
          OFFSET 12.7242 0 0
          CHANNELS 3 Zrotation Xrotation Yrotation
          End Site
          {
            OFFSET 0 0 0
          }
        }
      }
    }
  }
  JOINT Spine
  {
    OFFSET 0.165834 0.87714 6.61349
    CHANNELS 3 Zrotation Xrotation Yrotation
    JOINT Spine1
    {
      OFFSET 7.38963 1.71661e-005 0
      CHANNELS 3 Zrotation Xrotation Yrotation
      JOINT Spine2
      {
        OFFSET 11.9445 1.14441e-005 0
        CHANNELS 3 Zrotation Xrotation Yrotation
        JOINT Spine3
        {
          OFFSET 14.7254 4.19617e-005 0
          CHANNELS 3 Zrotation Xrotation Yrotation
          JOINT Spine4
          {
            OFFSET 10.9679 0 0
            CHANNELS 3 Zrotation Xrotation Yrotation
            JOINT RightShoulder
            {
              OFFSET 2.46616 -1.6653 3.69651
              CHANNELS 3 Zrotation Xrotation Yrotation
              JOINT RightArm
              {
                OFFSET 13.0012 0 0
                CHANNELS 3 Zrotation Xrotation Yrotation
                JOINT RightForeArm
                {
                  OFFSET 28.7848 1.52588e-005 0
                  CHANNELS 3 Zrotation Xrotation Yrotation
                  JOINT RightHand
                  {
                    OFFSET 26.5688 1.52588e-005 0
                    CHANNELS 3 Zrotation Xrotation Yrotation
                    End Site
                    {
                      OFFSET 0 0 0
                    }
                  }
                }
              }
            }
            JOINT LeftShoulder
            {
              OFFSET 2.38034 -1.29275 -3.75231
              CHANNELS 3 Zrotation Xrotation Yrotation
              JOINT LeftArm
              {
                OFFSET 16.3182 6.10351e-005 0
                CHANNELS 3 Zrotation Xrotation Yrotation
                JOINT LeftForeArm
                {
                  OFFSET 27.0901 0 0
                  CHANNELS 3 Zrotation Xrotation Yrotation
                  JOINT LeftHand
                  {
                    OFFSET 24.5451 1.52588e-005 0
                    CHANNELS 3 Zrotation Xrotation Yrotation
                    End Site
                    {
                      OFFSET 0 0 0
                    }
                  }
                }
              }
            }
            JOINT Neck
            {
              OFFSET 5.0226 -0.0266342 0
              CHANNELS 3 Zrotation Xrotation Yrotation
              JOINT Head
              {
                OFFSET 6.69363 2.86102e-005 0
                CHANNELS 3 Zrotation Xrotation Yrotation
                End Site
                {
                  OFFSET 0 0 0
                }
              }
            }
          }
        }
      }
    }
  }
}
MOTION
Frames:	11
Frame Time:	0.0416667
-217.424 79.039 -207.414 84.29 -16.2303 86.5645 -179.477 -10.0294 106.99 -42.2569 46.63 13.9453 56.1384 -2.4079 6.7458 96.5521 45.9807 -32.2083 158.281 61.5276 84.094 -71.9616 15.3127 14.7179 71.0798 -10.7075 -5.5423 177.178 -32.3604 -18.8097 -5.00139 7.51207 -90.4213 11.9038 -10.1437 0.24921 0.272739 -10.1228 0.7001 -22.5667 -9.74492 -2.84086 -2.55402 -9.7449 -2.84087 78.2867 -49.5304 -118.615 40.2271 -11.0536 58.6393 -108.536 -14.2196 -84.0492 -76.5886 16.9181 -28.6142 -99.3063 -39.2499 60.7174 -17.0211 -11.7412 10.8142 -21.2128 2.60013 -111.72 8.77923 9.03497 74.1519 16.4141 7.82819 -0.410726 0.731154 8.01755 4.65153 
-213.424 81.4805 -202.519 83.5926 -28.941 84.1299 178.268 -6.32462 98.6107 -48.8098 34.5008 9.12888 48.6956 -7.23388 3.74648 48.0283 22.6436 5.7823 163.817 57.492 90.1095 -69.7627 13.3498 9.15708 74.9735 -9.04249 -4.2747 72.2707 9.65468 10.2093 -3.64204 7.74241 -90.2025 11.4226 -7.34154 0.334503 -0.22789 -7.31965 0.659017 -22.9213 -7.10101 -1.89873 -2.90868 -7.10099 -1.89873 81.2731 -46.6054 -115.339 41.7282 -9.55584 52.2413 -110.223 -34.0409 -95.1419 -99.5557 23.3139 -26.0375 -98.4618 -35.9313 60.6026 -21.8982 -2.41589 9.50347 -1.52076 -3.44394 -113.406 20.3874 3.52199 17.0988 16.4304 7.6922 -1.7665 3.1921 8.50449 6.25896 
-209.317 83.8647 -197.516 79.5728 -45.0533 79.8411 -178.276 4.10121 94.2931 -63.3836 17.9329 2.9365 48.3693 -5.07372 7.60138 46.0581 17.6911 -6.69787 171.013 52.7728 95.3491 -58.3245 13.5601 6.1587 67.4701 -4.06078 -2.25501 48.5415 2.59687 15.0793 -1.67948 7.57998 -90.0128 11.7201 -3.34638 0.327124 0.0532116 -3.32874 0.474241 -22.5137 -3.28977 -0.694819 -2.50109 -3.28975 -0.694818 81.4544 -48.3321 -114.376 36.9874 -9.28371 45.9042 -77.9995 -26.7388 -81.1423 -70.8806 33.4228 -54.115 -99.8761 -36.3567 58.4393 -26.4984 7.95766 11.5667 12.9193 -9.42699 -102.503 23.6038 1.82684 3.87047 14.302 7.0222 -0.860172 4.97049 7.7602 6.75514 
-203.105 85.2742 -190.191 78.718 -51.1712 80.4338 -175.065 19.7228 90.9357 -73.3373 11.1556 1.37966 49.4951 -0.877686 10.929 51.1375 24.3014 -0.785137 170.115 43.6861 99.553 -56.7717 14.3232 6.47699 76.6026 -5.19508 -2.43326 32.9923 -0.242434 21.0307 -0.815218 7.74035 -90.2688 11.3927 -1.74763 -0.360807 -0.277061 -1.76178 -0.283523 -22.8205 -1.55836 -0.869495 -2.80789 -1.55836 -0.8695 81.1097 -48.1866 -114.955 33.4245 -11.464 36.528 -44.8619 -15.1409 -73.5815 -38.8225 18.5914 -59.3131 -100.866 -37.7524 57.4906 -29.7153 9.0867 14.4976 12.2132 -0.607334 -87.8417 23.8357 1.98397 4.53121 12.9922 6.91127 2.46418 6.84407 6.706 4.8399 
-195.968 84.4609 -181.486 78.9154 -54.6856 82.4222 -175.847 33.7555 93.146 -78.6286 9.55057 1.6542 52.7625 3.31146 15.463 57.2473 29.8009 -3.03072 169.748 37.1416 103.164 -61.629 15.983 4.31289 83.1788 -8.22466 -3.34048 37.5808 0.853883 21.1112 -0.247528 8.00771 -90.6307 10.8529 -0.784233 -1.18094 -0.81834 -0.835454 -1.14529 -23.3498 -0.393095 -1.362 -3.33716 -0.393093 -1.36201 78.8483 -47.4208 -118.691 28.2363 -12.7007 25.8931 -25.8911 -7.08424 -73.2731 -19.5238 3.43642 -26.9626 -102.028 -40.4997 56.9584 -32.3209 8.74509 17.711 11.3616 0.3326 -73.9706 26.0734 2.35242 5.24687 14.3892 7.09809 7.62186 7.74917 5.00863 0.771514 
-188.672 83.3653 -172.598 76.1363 -61.2793 81.2611 -176.417 47.1978 95.9721 -76.228 6.04827 1.77131 58.7996 5.90366 13.6781 53.812 29.5115 5.74421 173.223 30.1502 104.554 -63.0906 15.8434 1.38046 87.8706 -11.5864 -4.13801 46.9581 2.95745 18.687 0.79098 8.15284 -90.5495 10.5775 1.32267 -1.2154 -1.0933 1.2679 -1.27243 -23.6323 1.6268 -0.761659 -3.61971 1.6268 -0.761668 75.8064 -49.6543 -122.193 20.8655 -14.7602 13.4609 -20.5101 3.18006 -75.1441 -8.26532 -0.881563 3.68301 -103.031 -40.5572 55.4184 -35.8743 8.3965 24.9136 9.29221 3.45205 -63.2332 32.4923 2.91529 5.18664 20.0096 5.88201 5.04705 3.0178 4.30993 2.3503 
-180.902 82.4608 -162.389 69.9035 -65.7643 72.2168 -175.246 56.789 95.3778 -64.941 2.60925 0.970141 60.7466 4.4734 11.685 58.4072 33.7717 3.49866 175.876 22.9115 99.4211 -62.6553 14.268 -1.4885 88.6155 -12.4937 -4.36085 58.554 4.96726 15.4263 1.49242 7.79193 -90.0202 11.2976 2.9604 -0.337313 -0.370104 2.94268 -0.4674 -22.9317 2.92478 0.568775 -2.91902 2.92479 0.56878 79.9297 -44.7965 -118.178 23.9938 -17.4474 4.1934 -25.1258 7.17161 -84.0621 -26.1411 -1.50248 2.14894 -100.465 -39.377 58.9142 -45.5024 12.9071 36.1038 6.91439 4.55184 -61.646 36.1995 3.2825 5.23049 20.1128 5.13383 5.42519 0.737489 3.40645 2.08559 
-171.981 82.3431 -150.673 70.675 -69.4379 69.9586 -173.776 57.6309 96.5017 -46.3337 6.10676 -1.27735 55.0858 -2.31596 8.20376 49.5166 27.0539 13.2838 177.886 12.5137 89.9004 -60.8676 3.68581 -4.86364 79.7966 -9.05784 -3.97429 68.2788 6.20518 12.8449 2.25456 7.64017 -89.508 11.5909 4.71544 0.495498 -0.0715657 4.73267 0.28701 -22.6663 4.34815 1.89234 -2.65367 4.34816 1.89233 84.6462 -38.418 -113.229 32.0213 -20.7916 0.384335 -30.3013 8.3659 -93.4892 -30.0167 -2.53607 5.85053 -96.6859 -35.0507 63.2264 -58.8368 14.6887 49.9939 6.94268 3.46966 -67.1233 31.4732 2.66627 4.60922 19.6167 2.8816 3.90668 -0.954139 1.67116 1.85654 
-161.657 83.4603 -136.872 74.2663 -69.4145 70.3247 -172.529 51.2521 94.5919 -20.4749 11.6548 -3.22652 42.3777 -11.4826 1.50868 40.7271 15.4802 15.6367 174.978 -1.49972 83.0186 -50.2417 -6.33708 -7.04581 58.6406 -1.29657 -0.687625 69.7389 11.0516 26.9863 2.56885 7.44947 -88.8875 11.9438 5.63198 1.6107 0.284355 5.69737 1.36052 -22.3211 4.88721 3.23199 -2.30841 4.88719 3.23199 87.4896 -31.4204 -111.067 41.874 -26.6864 0.462858 -34.6949 17.4175 -102.356 -29.2672 -2.53126 6.20045 -93.5685 -28.2256 65.8015 -70.7531 10.9679 60.3082 7.81777 1.94667 -72.2205 31.3503 2.54252 4.30219 17.5595 0.235092 0.377435 -2.34804 0.184066 1.73514 
-150.907 84.9671 -123.614 79.8206 -68.5755 76.2362 -170.916 45.0655 93.5361 -8.10741 6.39099 -4.72947 36.4395 -14.0669 -2.09678 45.5207 20.0154 6.9117 174.141 -10.7412 80.8839 -43.4867 -5.44005 -8.8161 39.8249 4.18596 4.35192 37.2357 0.885336 27.7436 2.67248 7.10938 -88.6846 12.6179 5.93625 1.94659 0.959527 6.01615 1.68261 -21.6492 5.07652 3.64393 -1.63656 5.07652 3.64393 90.2171 -28.1142 -107.051 47.4565 -35.9576 0.70481 -34.6873 19.8869 -103.658 -30.8656 -2.87026 6.94448 -90.4638 -21.8938 69.1845 -76.3696 4.46917 64.7075 8.60402 1.27968 -74.474 34.5766 2.52166 3.43103 13.0748 -1.9732 -7.02344 -3.06997 0.0157578 5.01611 
-140.999 84.6273 -112.105 81.3924 -66.7608 83.3326 -170.16 47.0879 93.7958 -21.0288 17.9634 -5.30592 42.6394 -11.0064 2.86667 45.9312 17.6342 -7.14361 177.729 -4.49677 85.3508 -57.2998 15.4244 -7.20253 48.7987 -1.49679 -0.704464 39.4422 1.10611 16.1464 2.51662 6.62039 -89.1735 13.6233 5.39189 0.944791 1.96335 5.42823 0.705876 -20.6454 4.8582 2.52508 -0.632797 4.85819 2.52508 91.0337 -31.4486 -104.259 47.1095 -42.5959 1.66198 -30.6242 14.3036 -97.4977 -37.3878 -3.32388 6.0316 -89.0869 -23.0483 72.5589 -70.0736 -1.34189 62.3969 4.25097 -1.16695 -75.4693 34.9642 2.40399 3.01727 8.88049 -2.08728 -9.40169 -0.565369 0.28232 5.19546 
